{"title":"Slutty.Times.At.Innocent.High.2.XXX.DVDRip.x264-UPPERCUT","uid":8899395,"size":1509627675,"categoryP":"porn","categoryS":"movies","magnet":"?xt=urn:btih:0d11b326baf954b1ac7aae269f0367edd7cc5b48&amp;dn=Slutty.Times.At.Innocent.High.2.XXX.DVDRip.x264-UPPERCUT&amp;tr=udp%3A%2F%2Ftracker.openbittorrent.com%3A80&amp;tr=udp%3A%2F%2Fopen.demonii.com%3A1337&amp;tr=udp%3A%2F%2Ftracker.coppersurfer.tk%3A6969&amp;tr=udp%3A%2F%2Fexodus.desync.com%3A6969","seeders":0,"leechers":0,"uploader":null,"files":1,"time":1378780017,"description":" &lt;a href=&quot;http://picturemost.biz/share.php?id=58AB_522E6653&quot; rel=&quot;nofollow&quot; target=&quot;_NEW&quot;&gt;http://picturemost.biz/share.php?id=58AB_522E6653&lt;/a&gt;\n\n\nStarring Veronica Radke!\n\nNo Math. No Science. Just Fucking!\n\nFuck A Teacher For A Little Extra Credit!\n\nShe Had No Idea Sex Ed Would Be So 'Hands On!'\n\nShe Seemed So Innocent! Ahhh, Young Love!\n\nBe Naughty In Class And You May Have To Disciplined!\n\n\nFormat : MPEG-4\nFormat profile : Base Media\nCodec ID : isom\nFile size : 1.41 GiB\nDuration : 2h 24mn\nOverall bit rate mode : Variable\nOverall bit rate : 1 397 Kbps\nEncoded date : UTC 2013-09-06 12:35:02\nTagged date : UTC 2013-09-06 12:35:02\n\nVideo\nID : 1\nFormat : AVC\nFormat/Info : Advanced Video Codec\nFormat profile : &lt;a class=&quot;__cf_email__&quot; href=&quot;/cdn-cgi/l/email-protection&quot; data-cfemail=&quot;4b03222c230b0778657a&quot;&gt;[email&amp;#160;protected]&lt;/a&gt;&lt;script cf-hash='f9e31' type=&quot;text/javascript&quot;&gt;\n/* &lt;![CDATA[ */!function(){try{var t=&quot;currentScript&quot;in document?document.currentScript:function(){for(var t=document.getElementsByTagName(&quot;script&quot;),e=t.length;e--;)if(t[e].getAttribute(&quot;cf-hash&quot;))return t[e]}();if(t&amp;&amp;t.previousSibling){var e,r,n,i,c=t.previousSibling,a=c.getAttribute(&quot;data-cfemail&quot;);if(a){for(e=&quot;&quot;,r=parseInt(a.substr(0,2),16),n=2;a.length-n;n+=2)i=parseInt(a.substr(n,2),16)^r,e+=String.fromCharCode(i);e=document.createTextNode(e),c.parentNode.replaceChild(e,c)}}}catch(u){}}();/* ]]&gt; */&lt;/script&gt;\nFormat settings, CABAC : Yes\nFormat settings, ReFrames : 5 frames\nCodec ID : avc1\nCodec ID/Info : Advanced Video Coding\nDuration : 2h 24mn\nBit rate : 1 268 Kbps\nMaximum bit rate : 2 380 Kbps\nWidth : 720 pixels\nHeight : 404 pixels\nDisplay aspect ratio : 16:9\nFrame rate mode : Constant\nFrame rate : 23.976 fps\nColor space : YUV\nChroma subsampling : 4:2:0\nBit depth : 8 bits\nScan type : Progressive\nBits/(Pixel*Frame) : 0.182\nStream size : 1.28 GiB (91%)\nWriting library : x264 core 135 r2345 f0c1c53\n\nAudio\nID : 2\nFormat : AAC\nFormat/Info : Advanced Audio Codec\nFormat profile : LC\nCodec ID : 40\nDuration : 2h 24mn\nBit rate mode : Variable\nBit rate : 124 Kbps\nMaximum bit rate : 152 Kbps\nChannel(s) : 2 channels\nChannel positions : Front: L R\nSampling rate : 48.0 KHz\nCompression mode : Lossy\nStream size : 128 MiB (9%)\nLanguage : English\nEncoded date : UTC 2013-09-05 18:12:34\nTagged date : UTC 2013-09-06 12:35:24","torrent":{"xt":"urn:btih:0d11b326baf954b1ac7aae269f0367edd7cc5b48","amp;dn":"Slutty.Times.At.Innocent.High.2.XXX.DVDRip.x264-UPPERCUT","amp;tr":["udp%3A%2F%2Ftracker.openbittorrent.com%3A80","udp%3A%2F%2Fopen.demonii.com%3A1337","udp%3A%2F%2Ftracker.coppersurfer.tk%3A6969","udp%3A%2F%2Fexodus.desync.com%3A6969"],"infoHash":"0d11b326baf954b1ac7aae269f0367edd7cc5b48","infoHashBuffer":{"type":"Buffer","data":[13,17,179,38,186,249,84,177,172,122,174,38,159,3,103,237,215,204,91,72]},"announce":[],"urlList":[]}}